<svg xmlns="http://www.w3.org/2000/svg" xmlns:xlink="http://www.w3.org/1999/xlink" width="500" zoomAndPan="magnify" viewBox="0 0 375 374.999991" height="500" preserveAspectRatio="xMidYMid meet" version="1.0"><defs><filter x="0%" y="0%" width="100%" height="100%" id="399481fe03"><feColorMatrix values="0 0 0 0 1 0 0 0 0 1 0 0 0 0 1 0 0 0 1 0" color-interpolation-filters="sRGB"/></filter><mask id="c471650edb"><g filter="url(#399481fe03)"><rect x="-37.5" width="450" fill="#000000" y="-37.499999" height="449.999989" fill-opacity="0.4"/></g></mask><clipPath id="09a9a90852"><path d="M 0.769531 0.542969 L 85.992188 0.542969 L 85.992188 47.8125 L 0.769531 47.8125 Z M 0.769531 0.542969 " clip-rule="nonzero"/></clipPath><clipPath id="5628155c14"><path d="M 18.019531 0.542969 L 68.742188 0.542969 C 78.269531 0.542969 85.992188 8.265625 85.992188 17.792969 L 85.992188 30.53125 C 85.992188 40.058594 78.269531 47.78125 68.742188 47.78125 L 18.019531 47.78125 C 8.492188 47.78125 0.769531 40.058594 0.769531 30.53125 L 0.769531 17.792969 C 0.769531 8.265625 8.492188 0.542969 18.019531 0.542969 " clip-rule="nonzero"/></clipPath><clipPath id="5196e656d8"><rect x="0" width="87" y="0" height="48"/></clipPath><mask id="93266821c5"><g filter="url(#399481fe03)"><rect x="-37.5" width="450" fill="#000000" y="-37.499999" height="449.999989" fill-opacity="0.4"/></g></mask><clipPath id="73c2d5cab2"><path d="M 0.585938 0.460938 L 51.851562 0.460938 L 51.851562 85.683594 L 0.585938 85.683594 Z M 0.585938 0.460938 " clip-rule="nonzero"/></clipPath><clipPath id="21a9056c2b"><path d="M 17.835938 0.460938 L 33.980469 0.460938 C 43.507812 0.460938 51.230469 8.183594 51.230469 17.710938 L 51.230469 68.433594 C 51.230469 77.960938 43.507812 85.683594 33.980469 85.683594 L 17.835938 85.683594 C 8.308594 85.683594 0.585938 77.960938 0.585938 68.433594 L 0.585938 17.710938 C 0.585938 8.183594 8.308594 0.460938 17.835938 0.460938 " clip-rule="nonzero"/></clipPath><clipPath id="a5605ef62e"><rect x="0" width="52" y="0" height="86"/></clipPath><mask id="6c6a41d1f0"><g filter="url(#399481fe03)"><rect x="-37.5" width="450" fill="#000000" y="-37.499999" height="449.999989" fill-opacity="0.4"/></g></mask><clipPath id="3e1c7006a7"><path d="M 0.472656 0.816406 L 52.402344 0.816406 L 52.402344 50.75 L 0.472656 50.75 Z M 0.472656 0.816406 " clip-rule="nonzero"/></clipPath><clipPath id="606b683c34"><path d="M 17.722656 0.816406 L 35.042969 0.816406 C 44.566406 0.816406 52.292969 8.539062 52.292969 18.066406 L 52.292969 33.304688 C 52.292969 42.832031 44.566406 50.554688 35.042969 50.554688 L 17.722656 50.554688 C 8.195312 50.554688 0.472656 42.832031 0.472656 33.304688 L 0.472656 18.066406 C 0.472656 8.539062 8.195312 0.816406 17.722656 0.816406 " clip-rule="nonzero"/></clipPath><clipPath id="78cee47ed1"><rect x="0" width="53" y="0" height="51"/></clipPath><mask id="edb9070adc"><g filter="url(#399481fe03)"><rect x="-37.5" width="450" fill="#000000" y="-37.499999" height="449.999989" fill-opacity="0.4"/></g></mask><clipPath id="5c408c4121"><path d="M 0.6875 0.707031 L 50.480469 0.707031 L 50.480469 50.5 L 0.6875 50.5 Z M 0.6875 0.707031 " clip-rule="nonzero"/></clipPath><clipPath id="a83233446e"><path d="M 25.585938 0.707031 C 11.835938 0.707031 0.6875 11.855469 0.6875 25.605469 C 0.6875 39.355469 11.835938 50.5 25.585938 50.5 C 39.335938 50.5 50.480469 39.355469 50.480469 25.605469 C 50.480469 11.855469 39.335938 0.707031 25.585938 0.707031 " clip-rule="nonzero"/></clipPath><clipPath id="723fac4fb1"><rect x="0" width="51" y="0" height="51"/></clipPath></defs><g mask="url(#c471650edb)"><g transform="matrix(1, 0, 0, 1, 74, 52)"><g clip-path="url(#5196e656d8)"><g clip-path="url(#09a9a90852)"><g clip-path="url(#5628155c14)"><path fill="#273968" d="M 0.769531 0.542969 L 85.992188 0.542969 L 85.992188 47.8125 L 0.769531 47.8125 Z M 0.769531 0.542969 " fill-opacity="1" fill-rule="nonzero"/></g></g></g></g></g><g mask="url(#93266821c5)"><g transform="matrix(1, 0, 0, 1, 249, 127)"><g clip-path="url(#a5605ef62e)"><g clip-path="url(#73c2d5cab2)"><g clip-path="url(#21a9056c2b)"><path fill="#273968" d="M 0.585938 0.460938 L 51.1875 0.460938 L 51.1875 85.683594 L 0.585938 85.683594 Z M 0.585938 0.460938 " fill-opacity="1" fill-rule="nonzero"/></g></g></g></g></g><g mask="url(#6c6a41d1f0)"><g transform="matrix(1, 0, 0, 1, 91, 187)"><g clip-path="url(#78cee47ed1)"><g clip-path="url(#3e1c7006a7)"><g clip-path="url(#606b683c34)"><path fill="#273968" d="M 0.472656 0.816406 L 52.402344 0.816406 L 52.402344 50.75 L 0.472656 50.75 Z M 0.472656 0.816406 " fill-opacity="1" fill-rule="nonzero"/></g></g></g></g></g><g mask="url(#edb9070adc)"><g transform="matrix(1, 0, 0, 1, 224, 287)"><g clip-path="url(#723fac4fb1)"><g clip-path="url(#5c408c4121)"><g clip-path="url(#a83233446e)"><path fill="#273968" d="M 0.6875 0.707031 L 50.480469 0.707031 L 50.480469 50.5 L 0.6875 50.5 Z M 0.6875 0.707031 " fill-opacity="1" fill-rule="nonzero"/></g></g></g></g></g></svg>