<svg xmlns="http://www.w3.org/2000/svg" xmlns:xlink="http://www.w3.org/1999/xlink" width="500" zoomAndPan="magnify" viewBox="0 0 375 374.999991" height="500" preserveAspectRatio="xMidYMid meet" version="1.0"><defs><clipPath id="3353dda56d"><path d="M 38 104 L 265 104 L 265 310.234375 L 38 310.234375 Z M 38 104 " clip-rule="nonzero"/></clipPath><clipPath id="91048883f8"><path d="M 101.398438 65.027344 L 346.648438 65.027344 L 346.648438 310.277344 L 101.398438 310.277344 Z M 101.398438 65.027344 " clip-rule="nonzero"/></clipPath><clipPath id="cf5a921341"><path d="M 71 164 L 203 164 L 203 284.410156 L 71 284.410156 Z M 71 164 " clip-rule="nonzero"/></clipPath></defs><rect x="-37.5" width="450" fill="#ffffff" y="-37.499999" height="449.999989" fill-opacity="1"/><rect x="-37.5" width="450" fill="#ffffff" y="-37.499999" height="449.999989" fill-opacity="1"/><rect x="-37.5" width="450" fill="#000000" y="-37.499999" height="449.999989" fill-opacity="1"/><g clip-path="url(#3353dda56d)"><path fill="#fefefe" d="M 117.285156 124.183594 C 132.40625 97.996094 170.207031 97.996094 185.328125 124.183594 L 222.03125 187.757812 L 258.738281 251.328125 C 273.855469 277.519531 254.957031 310.253906 224.714844 310.253906 L 77.898438 310.253906 C 47.65625 310.253906 28.757812 277.519531 43.875 251.328125 L 80.582031 187.757812 Z M 117.285156 124.183594 " fill-opacity="1" fill-rule="nonzero"/></g><g clip-path="url(#91048883f8)"><path fill="#ffffff" d="M 346.648438 187.652344 C 346.648438 189.660156 346.597656 191.664062 346.5 193.671875 C 346.402344 195.675781 346.253906 197.675781 346.058594 199.671875 C 345.859375 201.667969 345.617188 203.660156 345.320312 205.644531 C 345.027344 207.632812 344.683594 209.609375 344.292969 211.578125 C 343.902344 213.542969 343.460938 215.503906 342.972656 217.449219 C 342.484375 219.394531 341.949219 221.328125 341.367188 223.25 C 340.785156 225.167969 340.15625 227.074219 339.480469 228.964844 C 338.804688 230.855469 338.082031 232.726562 337.3125 234.578125 C 336.546875 236.433594 335.734375 238.269531 334.875 240.082031 C 334.015625 241.894531 333.113281 243.6875 332.167969 245.457031 C 331.222656 247.226562 330.234375 248.972656 329.203125 250.695312 C 328.171875 252.417969 327.097656 254.113281 325.980469 255.78125 C 324.867188 257.449219 323.710938 259.089844 322.515625 260.699219 C 321.320312 262.3125 320.085938 263.894531 318.8125 265.445312 C 317.539062 266.996094 316.230469 268.515625 314.882812 270.003906 C 313.535156 271.488281 312.152344 272.941406 310.730469 274.363281 C 309.3125 275.78125 307.859375 277.164062 306.375 278.511719 C 304.886719 279.859375 303.367188 281.171875 301.816406 282.445312 C 300.265625 283.714844 298.683594 284.949219 297.070312 286.148438 C 295.460938 287.34375 293.820312 288.496094 292.148438 289.613281 C 290.480469 290.726562 288.785156 291.800781 287.066406 292.832031 C 285.34375 293.863281 283.597656 294.851562 281.828125 295.800781 C 280.058594 296.746094 278.265625 297.648438 276.453125 298.503906 C 274.636719 299.363281 272.804688 300.175781 270.949219 300.945312 C 269.097656 301.710938 267.222656 302.433594 265.335938 303.109375 C 263.445312 303.785156 261.539062 304.414062 259.621094 305 C 257.699219 305.582031 255.765625 306.117188 253.820312 306.601562 C 251.871094 307.089844 249.914062 307.53125 247.945312 307.921875 C 245.976562 308.3125 244 308.65625 242.015625 308.949219 C 240.03125 309.246094 238.039062 309.492188 236.042969 309.6875 C 234.046875 309.882812 232.042969 310.03125 230.039062 310.128906 C 228.035156 310.230469 226.03125 310.277344 224.023438 310.277344 C 222.015625 310.277344 220.011719 310.230469 218.007812 310.128906 C 216.003906 310.03125 214 309.882812 212.003906 309.6875 C 210.007812 309.492188 208.015625 309.246094 206.03125 308.949219 C 204.046875 308.65625 202.070312 308.3125 200.101562 307.921875 C 198.132812 307.53125 196.175781 307.089844 194.226562 306.601562 C 192.28125 306.117188 190.347656 305.582031 188.425781 305 C 186.507812 304.414062 184.601562 303.785156 182.710938 303.109375 C 180.824219 302.433594 178.949219 301.710938 177.097656 300.945312 C 175.242188 300.175781 173.410156 299.363281 171.59375 298.503906 C 169.78125 297.648438 167.988281 296.746094 166.21875 295.800781 C 164.449219 294.851562 162.703125 293.863281 160.980469 292.832031 C 159.261719 291.800781 157.566406 290.726562 155.898438 289.613281 C 154.226562 288.496094 152.585938 287.34375 150.976562 286.148438 C 149.363281 284.949219 147.78125 283.714844 146.230469 282.445312 C 144.679688 281.171875 143.160156 279.859375 141.671875 278.511719 C 140.1875 277.164062 138.734375 275.78125 137.3125 274.363281 C 135.894531 272.941406 134.511719 271.488281 133.164062 270.003906 C 131.816406 268.515625 130.507812 266.996094 129.234375 265.445312 C 127.960938 263.894531 126.726562 262.3125 125.53125 260.699219 C 124.335938 259.089844 123.179688 257.449219 122.0625 255.78125 C 120.949219 254.113281 119.875 252.417969 118.84375 250.695312 C 117.8125 248.972656 116.824219 247.226562 115.878906 245.457031 C 114.933594 243.6875 114.03125 241.894531 113.171875 240.082031 C 112.3125 238.269531 111.5 236.433594 110.734375 234.578125 C 109.964844 232.726562 109.242188 230.855469 108.566406 228.964844 C 107.890625 227.074219 107.261719 225.167969 106.679688 223.25 C 106.097656 221.328125 105.5625 219.394531 105.074219 217.449219 C 104.585938 215.503906 104.144531 213.542969 103.753906 211.578125 C 103.363281 209.609375 103.019531 207.632812 102.726562 205.644531 C 102.429688 203.660156 102.1875 201.667969 101.988281 199.671875 C 101.792969 197.675781 101.644531 195.675781 101.546875 193.671875 C 101.449219 191.664062 101.398438 189.660156 101.398438 187.652344 C 101.398438 185.644531 101.449219 183.640625 101.546875 181.636719 C 101.644531 179.632812 101.792969 177.632812 101.988281 175.632812 C 102.1875 173.636719 102.429688 171.644531 102.726562 169.660156 C 103.019531 167.675781 103.363281 165.699219 103.753906 163.730469 C 104.144531 161.761719 104.585938 159.804688 105.074219 157.859375 C 105.5625 155.910156 106.097656 153.976562 106.679688 152.058594 C 107.261719 150.136719 107.890625 148.230469 108.566406 146.34375 C 109.242188 144.453125 109.964844 142.582031 110.734375 140.726562 C 111.5 138.871094 112.3125 137.039062 113.171875 135.222656 C 114.03125 133.410156 114.933594 131.617188 115.878906 129.847656 C 116.824219 128.078125 117.8125 126.332031 118.84375 124.613281 C 119.875 122.890625 120.949219 121.195312 122.0625 119.527344 C 123.179688 117.859375 124.335938 116.21875 125.53125 114.605469 C 126.726562 112.992188 127.960938 111.414062 129.234375 109.859375 C 130.507812 108.308594 131.816406 106.789062 133.164062 105.304688 C 134.511719 103.816406 135.894531 102.363281 137.3125 100.945312 C 138.734375 99.523438 140.1875 98.140625 141.671875 96.792969 C 143.160156 95.445312 144.679688 94.136719 146.230469 92.863281 C 147.78125 91.589844 149.363281 90.355469 150.976562 89.160156 C 152.585938 87.964844 154.226562 86.808594 155.898438 85.695312 C 157.566406 84.578125 159.261719 83.507812 160.980469 82.472656 C 162.703125 81.441406 164.449219 80.453125 166.21875 79.507812 C 167.988281 78.5625 169.78125 77.660156 171.59375 76.800781 C 173.410156 75.945312 175.242188 75.128906 177.097656 74.363281 C 178.949219 73.59375 180.824219 72.871094 182.710938 72.195312 C 184.601562 71.519531 186.507812 70.890625 188.425781 70.308594 C 190.347656 69.726562 192.28125 69.191406 194.226562 68.703125 C 196.175781 68.214844 198.132812 67.777344 200.101562 67.382812 C 202.070312 66.992188 204.046875 66.648438 206.03125 66.355469 C 208.015625 66.0625 210.007812 65.816406 212.003906 65.617188 C 214 65.421875 216.003906 65.273438 218.007812 65.175781 C 220.011719 65.078125 222.015625 65.027344 224.023438 65.027344 C 226.03125 65.027344 228.035156 65.078125 230.039062 65.175781 C 232.042969 65.273438 234.046875 65.421875 236.042969 65.617188 C 238.039062 65.816406 240.03125 66.0625 242.015625 66.355469 C 244 66.648438 245.976562 66.992188 247.945312 67.382812 C 249.914062 67.777344 251.871094 68.214844 253.820312 68.703125 C 255.765625 69.191406 257.699219 69.726562 259.621094 70.308594 C 261.539062 70.890625 263.445312 71.519531 265.335938 72.195312 C 267.222656 72.871094 269.097656 73.59375 270.949219 74.363281 C 272.804688 75.128906 274.636719 75.945312 276.453125 76.800781 C 278.265625 77.660156 280.058594 78.5625 281.828125 79.507812 C 283.597656 80.453125 285.34375 81.441406 287.066406 82.472656 C 288.785156 83.507812 290.480469 84.578125 292.148438 85.695312 C 293.820312 86.808594 295.460938 87.964844 297.070312 89.160156 C 298.683594 90.355469 300.265625 91.589844 301.816406 92.863281 C 303.367188 94.136719 304.886719 95.445312 306.375 96.792969 C 307.859375 98.140625 309.3125 99.523438 310.730469 100.945312 C 312.152344 102.363281 313.535156 103.816406 314.882812 105.304688 C 316.230469 106.789062 317.539062 108.308594 318.8125 109.859375 C 320.085938 111.414062 321.320312 112.992188 322.515625 114.605469 C 323.710938 116.21875 324.867188 117.859375 325.980469 119.527344 C 327.097656 121.195312 328.171875 122.890625 329.203125 124.613281 C 330.234375 126.332031 331.222656 128.078125 332.167969 129.847656 C 333.113281 131.617188 334.015625 133.410156 334.875 135.222656 C 335.734375 137.039062 336.546875 138.871094 337.3125 140.726562 C 338.082031 142.582031 338.804688 144.453125 339.480469 146.34375 C 340.15625 148.230469 340.785156 150.136719 341.367188 152.058594 C 341.949219 153.976562 342.484375 155.910156 342.972656 157.859375 C 343.460938 159.804688 343.902344 161.761719 344.292969 163.730469 C 344.683594 165.699219 345.027344 167.675781 345.320312 169.660156 C 345.617188 171.644531 345.859375 173.636719 346.058594 175.632812 C 346.253906 177.632812 346.402344 179.632812 346.5 181.636719 C 346.597656 183.640625 346.648438 185.644531 346.648438 187.652344 Z M 346.648438 187.652344 " fill-opacity="1" fill-rule="nonzero"/></g><g clip-path="url(#cf5a921341)"><path fill="#000000" d="M 117.617188 175.933594 C 126.402344 160.664062 148.367188 160.664062 157.152344 175.933594 L 178.476562 213 L 199.804688 250.066406 C 208.589844 265.332031 197.605469 284.417969 180.035156 284.417969 L 94.730469 284.417969 C 77.164062 284.417969 66.179688 265.332031 74.964844 250.066406 L 96.292969 213 Z M 117.617188 175.933594 " fill-opacity="1" fill-rule="nonzero"/></g></svg>